<?xml version="1.0" standalone="no"?>
<!DOCTYPE svg PUBLIC "-//W3C//DTD SVG 20010904//EN"
 "http://www.w3.org/TR/2001/REC-SVG-20010904/DTD/svg10.dtd">
<svg version="1.0" xmlns="http://www.w3.org/2000/svg"
 width="16.000000pt" height="16.000000pt" viewBox="0 0 16.000000 16.000000"
 preserveAspectRatio="xMidYMid meet">

<g transform="translate(0.000000,16.000000) scale(0.100000,-0.100000)"
fill="#000000" stroke="none">
<path d="M26 118 c-9 -12 -16 -29 -16 -38 0 -26 30 -60 53 -60 20 1 20 2 5 11
-28 16 -40 46 -29 68 15 27 41 34 67 16 27 -17 32 -62 12 -85 -11 -12 -10 -12
4 -1 33 25 30 79 -6 103 -24 16 -75 8 -90 -14z"/>
</g>
</svg>
